X Lossless Decoder version 20181019 (151.1)

XLD extraction logfile from 2019-02-16 21:15:45 +0100

 / Die Drei ??? - und die schwarze Katze - CD2

Used drive : ASUS BW-16D1HT (revision 3.01)
Media type : Pressed CD

Ripper mode             : XLD Secure Ripper
Disable audio cache     : OK for the drive with a cache less than 1375KiB
Make use of C2 pointers : NO
Read offset correction  : 6
Max retry count         : 40
Gap status              : Analyzed, Appended

TOC of the extracted CD
     Track |   Start  |  Length  | Start sector | End sector 
    ---------------------------------------------------------
        1  | 00:00:00 | 09:17:07 |         0    |    41781   
        2  | 09:17:07 | 10:35:46 |     41782    |    89452   
        3  | 19:52:53 | 06:05:52 |     89453    |   116879   
        4  | 25:58:30 | 03:35:45 |    116880    |   133049   
        5  | 29:34:00 | 07:19:63 |    133050    |   166037   
        6  | 36:53:63 | 07:41:71 |    166038    |   200683   

AccurateRip Summary
    Disc not found in AccurateRip DB.

All Tracks
    Filename : ~/Projects/Audiobooks/_temp/Die Drei ??? - und die schwarze Katze - CD2.m4a
    CRC32 hash               : F38A0B0B
    CRC32 hash (skip zero)   : DD583C5B
    Statistics
        Read error                           : 0
        Jitter error (maybe fixed)           : 0
        Retry sector count                   : 0
        Damaged sector count                 : 0

Track 01
    Pre-gap length : 00:02:00

    CRC32 hash               : A3AA3C06
    CRC32 hash (skip zero)   : EB765859
    AccurateRip v1 signature : 8FA024B3
    AccurateRip v2 signature : 099FD9A6
        ->Track not present in AccurateRip database.
    Statistics
        Read error                           : 0
        Jitter error (maybe fixed)           : 0
        Retry sector count                   : 0
        Damaged sector count                 : 0

Track 02

    CRC32 hash               : FB1AD314
    CRC32 hash (skip zero)   : 1DDA49C8
    AccurateRip v1 signature : 52674747
    AccurateRip v2 signature : 6C519635
        ->Track not present in AccurateRip database.
    Statistics
        Read error                           : 0
        Jitter error (maybe fixed)           : 0
        Retry sector count                   : 0
        Damaged sector count                 : 0

Track 03

    CRC32 hash               : E5C5E444
    CRC32 hash (skip zero)   : 18877320
    AccurateRip v1 signature : 9924A897
    AccurateRip v2 signature : ABFA5FDA
        ->Track not present in AccurateRip database.
    Statistics
        Read error                           : 0
        Jitter error (maybe fixed)           : 0
        Retry sector count                   : 0
        Damaged sector count                 : 0

Track 04

    CRC32 hash               : 62C6AEB0
    CRC32 hash (skip zero)   : DFD2510C
    AccurateRip v1 signature : 6E548E93
    AccurateRip v2 signature : 08254235
        ->Track not present in AccurateRip database.
    Statistics
        Read error                           : 0
        Jitter error (maybe fixed)           : 0
        Retry sector count                   : 0
        Damaged sector count                 : 0

Track 05

    CRC32 hash               : 7BAC84AA
    CRC32 hash (skip zero)   : 03EAF98C
    AccurateRip v1 signature : E15CC02B
    AccurateRip v2 signature : 2CD1BFEA
        ->Track not present in AccurateRip database.
    Statistics
        Read error                           : 0
        Jitter error (maybe fixed)           : 0
        Retry sector count                   : 0
        Damaged sector count                 : 0

Track 06

    CRC32 hash               : 4EFD95ED
    CRC32 hash (skip zero)   : 1947C36F
    AccurateRip v1 signature : 31D47EA8
    AccurateRip v2 signature : 3BEF79C2
        ->Track not present in AccurateRip database.
    Statistics
        Read error                           : 0
        Jitter error (maybe fixed)           : 0
        Retry sector count                   : 0
        Damaged sector count                 : 0

No errors occurred

End of status report
